<svg xmlns="http://www.w3.org/2000/svg" width="100" height="18.397" viewBox="0 0 100 18.397"><defs><style>.a{fill:#333;}.b{fill:#e0291a;}</style></defs><path class="a" d="M32.515,14.053l.15.019v.536H26.89v-.536l.153-.019c.472-.056,1.021-.131,1.021-1.268V2.541c0-.909-.359-1.249-1.021-1.249H26.93V.721L31.488.08V12.785C31.491,13.638,31.852,13.978,32.515,14.053Z" transform="translate(-19.681 -0.059)"/><path class="a" d="M51.27,22.5c0-3.145,2.255-5.63,5.038-5.63,2.539,0,3.71,2.067,3.71,4.413H54.3c0,1.989.925,3.257,2.649,3.26a2.982,2.982,0,0,0,2.442-1.155h.456c-.493,2.391-1.973,3.705-4.169,3.705A4.246,4.246,0,0,1,51.27,22.5Zm5.29-1.684v-.284c0-1.93,0-3.359-.743-3.359s-1.421,1.4-1.517,3.654Z" transform="translate(-37.525 -12.347)"/><path class="a" d="M96.691,26.939a5.951,5.951,0,0,1-1.917.206,2.05,2.05,0,0,1-2.145-1.571,4.073,4.073,0,0,1-3.051,1.568,2.35,2.35,0,0,1-2.458-2.558c0-2.649,2.727-2.668,4.507-3.558a2.415,2.415,0,0,0,1.517-2.365c0-.965-.359-1.458-1.04-1.458-.946,0-1.34.909-1.4,3.273H87.3c.327-2.52,2.2-3.56,4.756-3.558,2.5,0,3.753,1.072,3.753,3.145v5.07c0,.568.016,1.287.775,1.287h.1ZM92.4,21.124c-.094.056-.172.094-.606.322-.606.322-1.155.587-1.155,2.005,0,1.249.453,2.046,1.19,2.046a.893.893,0,0,0,.568-.188Z" transform="translate(-63.763 -12.384)"/><path class="a" d="M133.037,17.037V20.35a5.077,5.077,0,0,0-1.306-.172,4.174,4.174,0,0,0-1.847.434v4.525c0,1.1.536,1.249,1.021,1.271l.34.019v.536H125.08v-.536l.34-.019c.472-.056,1.021-.169,1.021-1.268V19.4c0-.928-.378-1.249-1.043-1.249h-.094v-.574l4.432-.641v3.426c.646-2.145,1.121-3.426,2.539-3.426A3.2,3.2,0,0,1,133.037,17.037Z" transform="translate(-91.546 -12.398)"/><path class="a" d="M169.337,26.48v.536h-5.584V26.48l.15-.019c.834-.094.834-.7.834-1.268v-5.04c0-1.072-.566-1.5-1.247-1.5a2.276,2.276,0,0,0-1.327.475v6.059c0,.587,0,1.155.831,1.268l.153.019v.536H157.56v-.536l.153-.019c.475-.056,1.021-.188,1.024-1.268v-5.74c0-.928-.378-1.249-1.04-1.249h-.1V17.63l4.434-.63v1.877A4.021,4.021,0,0,1,165.423,17c1.724,0,2.745,1.1,2.745,3.182V25.19c0,.8.359,1.193,1.021,1.268Z" transform="translate(-115.319 -12.442)"/><path class="a" d="M207.883,20.1c1.8.483,3.861,1.139,3.861,3.555,0,2.182-1.7,3.418-3.962,3.416-2.472,0-4.343-1.45-4.651-3.4h3.182c0,1.759.871,3.11,1.952,3.11a1.4,1.4,0,0,0,1.354-1.45c0-1.273-1.314-1.609-2.743-2.011-1.718-.483-3.611-1.072-3.609-3.381,0-2.375,2.048-3.282,4-3.282,2.279,0,4.094,1.295,4.44,2.976h-3.182c-.059-1.507-1.046-2.681-1.973-2.681a1.273,1.273,0,0,0-1.236,1.34C205.315,19.495,206.647,19.765,207.883,20.1Z" transform="translate(-148.672 -12.186)"/><path class="a" d="M248.778,14.187v.536H243.19v-.536l.15-.019c.474-.056.834-.153.834-1.268V7.86c0-1.072-.568-1.5-1.249-1.5a2.266,2.266,0,0,0-1.319.477V12.9c0,.662.038,1.174.834,1.271l.15.019v.536H237V14.19l.153-.019c.472-.059,1.021-.153,1.021-1.268V2.659c0-.909-.359-1.252-1.021-1.252h-.113V.831L241.6.19V6.439A3.949,3.949,0,0,1,244.863,4.7c1.724,0,2.745,1.1,2.743,3.182V12.9c0,.834.359,1.193,1.024,1.271Z" transform="translate(-173.461 -0.139)"/><path class="a" d="M288.467,14.051v.536H282.69v-.536l.15-.019c.475-.056,1.024-.113,1.024-1.249V7.024c0-.909-.359-1.249-1.021-1.249h-.115V5.206l4.558-.641v8.217c0,.853.359,1.174,1.021,1.249ZM283.417,1.912a2.049,2.049,0,1,1,2.046,1.933A1.924,1.924,0,0,1,283.417,1.912Z" transform="translate(-206.902)"/><path class="a" d="M316.372,21.629c0,3.217-2.086,5.4-5.078,5.394a7.957,7.957,0,0,1-1.761-.172v2.161c0,.85.359,1.231,1.021,1.268l.34.019v.536H304.93V30.3l.153-.019c.475-.056,1.021-.19,1.024-1.268V19.468c0-.928-.378-1.249-1.043-1.249h-.094v-.571L309.407,17v1.818A3.343,3.343,0,0,1,312.474,17C314.917,17.01,316.375,18.962,316.372,21.629Zm-3.56.965c0-2.539-.962-3.826-2.1-3.826a2.145,2.145,0,0,0-1.174.373v6.651a1.488,1.488,0,0,0,1.249.909c1.169,0,2.024-1.759,2.024-4.107Z" transform="translate(-223.179 -12.439)"/><path class="b" d="M3.984,2.62,0,16.454l1.775,0L5.759,2.62Z" transform="translate(0 -1.918)"/><path class="b" d="M355.5,2.62,351.52,16.454l1.775,0L357.279,2.62Z" transform="translate(-257.279 -1.918)"/><g transform="translate(91 0.702)"><path class="a" d="M340.476,4.915h-.357v-2h-.689v-.3h1.724v.3h-.689Z" transform="translate(-339.43 -2.62)"/><path class="a" d="M348.151,4.915l-.694-1.952h-.013V4.915h-.314V2.62h.5l.66,1.842h0l.678-1.842h.5V4.915h-.338V2.966h0l-.713,1.949Z" transform="translate(-345.066 -2.62)"/></g></svg>