<svg id="Layer_1" data-name="Layer 1" xmlns="http://www.w3.org/2000/svg" viewBox="0 0 373 68.61"><path d="M47.87,52.2l.56.07v2H26.89v-2l.57-.07c1.76-.21,3.81-.49,3.81-4.73l0-38.21c0-3.39-1.34-4.66-3.81-4.66h-.42V2.47l17-2.39,0,47.39C44.05,50.65,45.4,51.92,47.87,52.2Z" style="fill:#fff"/><path d="M51.27,37.87c0-11.73,8.41-21,18.79-21,9.47,0,13.84,7.71,13.84,16.46H62.57c0,7.42,3.45,12.15,9.88,12.16,3.6,0,7.34-1.62,9.11-4.31h1.7C81.42,50.1,75.9,55,67.71,55,58.11,55,51.26,48.46,51.27,37.87ZM71,31.59V30.53C71,23.33,71,18,68.23,18s-5.3,5.22-5.66,13.63Z" style="fill:#fff"/><path d="M122.82,54.29a22.2,22.2,0,0,1-7.15.77c-4.31,0-7-2.26-8-5.86-3.32,3.81-7.28,5.86-11.38,5.85-5.5,0-9.18-3.67-9.17-9.54,0-9.88,10.17-9.95,16.81-13.27,3.25-1.62,5.66-4,5.66-8.82,0-3.6-1.34-5.44-3.88-5.44-3.53,0-5,3.39-5.24,12.21H87.78C89,20.79,96,16.91,105.52,16.92c9.32,0,14,4,14,11.73V47.56c0,2.12.06,4.8,2.89,4.8h.37Zm-16-21.69c-.35.21-.64.35-2.26,1.2-2.26,1.2-4.31,2.19-4.31,7.48,0,4.66,1.69,7.63,4.44,7.63a3.33,3.33,0,0,0,2.12-.7Z" style="fill:#fff"/><path d="M154.76,17.3V29.66a18.94,18.94,0,0,0-4.87-.64A15.57,15.57,0,0,0,143,30.64V47.52c0,4.1,2,4.66,3.81,4.74l1.27.07v2h-23v-2l1.27-.07c1.76-.21,3.81-.63,3.81-4.73l0-21.4c0-3.46-1.41-4.66-3.89-4.66h-.35V19.33l16.53-2.39V29.72c2.41-8,4.18-12.78,9.47-12.78A11.94,11.94,0,0,1,154.76,17.3Z" style="fill:#fff"/><path d="M201.49,52.36v2H180.66v-2l.56-.07c3.11-.35,3.11-2.61,3.11-4.73V28.76c0-4-2.11-5.58-4.65-5.59a8.49,8.49,0,0,0-4.95,1.77v22.6c0,2.19,0,4.31,3.1,4.73l.57.07v2H157.56v-2l.57-.07c1.77-.21,3.81-.7,3.82-4.73V26.13c0-3.46-1.41-4.66-3.88-4.66h-.36V19.35L174.25,17V24A15,15,0,0,1,186.89,17c6.43,0,10.24,4.11,10.24,11.87V47.55c0,3,1.34,4.45,3.81,4.73Z" style="fill:#fff"/><path d="M220.86,29.5c6.7,1.8,14.4,4.25,14.4,13.26,0,8.14-6.35,12.75-14.78,12.74-9.22,0-16.2-5.41-17.35-12.69H215c0,6.56,3.25,11.6,7.28,11.6A5.21,5.21,0,0,0,227.33,49c0-4.75-4.9-6-10.23-7.5-6.41-1.8-13.47-4-13.46-12.61,0-8.86,7.64-12.24,14.92-12.24,8.5,0,15.27,4.83,16.56,11.1H223.25c-.22-5.62-3.9-10-7.36-10a4.75,4.75,0,0,0-4.61,5C211.28,27.26,216.25,28.27,220.86,29.5Z" style="fill:#fff"/><path d="M280.93,52.4v2H260.09v-2l.56-.07c1.77-.21,3.11-.57,3.11-4.73V28.8c0-4-2.12-5.58-4.66-5.58A8.45,8.45,0,0,0,254.18,25l0,22.6c0,2.47.14,4.38,3.11,4.74l.56.07v2H237v-2l.57-.07c1.76-.22,3.81-.57,3.81-4.73l0-38.21c0-3.39-1.34-4.67-3.81-4.67h-.42V2.58l17-2.39V23.5A14.73,14.73,0,0,1,266.33,17c6.43,0,10.24,4.1,10.23,11.87V47.59c0,3.11,1.34,4.45,3.82,4.74Z" style="fill:#fff"/><path d="M304.24,52.41v2H282.69v-2l.56-.07c1.77-.21,3.82-.42,3.82-4.66V26.2c0-3.39-1.34-4.66-3.81-4.66h-.43V19.42l17-2.39,0,30.65c0,3.18,1.34,4.38,3.81,4.66ZM285.4,7.13c0-4,3.12-7.13,7.64-7.13s7.62,3.11,7.62,7.14-3.11,7.2-7.63,7.2S285.4,11.23,285.4,7.13Z" style="fill:#fff"/><path d="M347.61,34.28c0,12-7.78,20.13-18.94,20.12a29.68,29.68,0,0,1-6.57-.64v8.06c0,3.17,1.34,4.59,3.81,4.73l1.27.07v2H304.93v-2l.57-.07c1.77-.21,3.81-.71,3.82-4.73l0-35.6c0-3.46-1.41-4.66-3.89-4.66h-.35V19.43L321.63,17v6.78A12.47,12.47,0,0,1,333.07,17C342.18,17.05,347.62,24.33,347.61,34.28Zm-13.28,3.6c0-9.47-3.59-14.27-7.83-14.27A8,8,0,0,0,322.12,25V49.81c1.27,2.26,2.89,3.39,4.66,3.39C331.14,53.2,334.33,46.64,334.33,37.88Z" style="fill:#fff"/><polygon points="14.86 2.62 0 54.22 6.62 54.23 21.48 2.62 14.86 2.62" style="fill:#e0291a"/><polygon points="366.38 2.62 351.52 54.22 358.14 54.23 373 2.62 366.38 2.62" style="fill:#e0291a"/><path d="M343.33,11.18H342V3.73h-2.57V2.62h6.43V3.73h-2.57Z" style="fill:#fff"/><path d="M350.94,11.18,348.35,3.9h-.05c0,.17,0,.39,0,.65s0,.56,0,.88,0,.62,0,.92v4.83h-1.17V2.62h1.85l2.46,6.87h0l2.53-6.87h1.85v8.56h-1.26V6.28c0-.28,0-.57,0-.87s0-.57,0-.84,0-.48,0-.66h0l-2.66,7.27Z" style="fill:#fff"/></svg>